<mxfile host="www.draw.io" modified="2019-11-13T11:00:22.920Z" agent="Mozilla/5.0 (Windows NT 10.0; Win64; x64) AppleWebKit/537.36 (KHTML, like Gecko) Chrome/78.0.3904.70 Safari/537.36" etag="IGK-mlLtxdBy_dZ6rVeC" version="12.2.4" type="github" pages="1">
  <diagram id="TCVxX6izYauTGIbCcTxX" name="第 1 页">
    <mxGraphModel dx="1422" dy="713" grid="1" gridSize="10" guides="1" tooltips="1" connect="1" arrows="1" fold="1" page="1" pageScale="1" pageWidth="827" pageHeight="1169" math="0" shadow="0">
      <root>
        <mxCell id="0"/>
        <mxCell id="1" parent="0"/>
        <mxCell id="btiSJx4ggXDAXspwwILB-2" value="" style="rounded=1;whiteSpace=wrap;html=1;" vertex="1" parent="1">
          <mxGeometry x="240" y="330" width="350" height="160" as="geometry"/>
        </mxCell>
        <mxCell id="btiSJx4ggXDAXspwwILB-3" value="AtomicInteger" style="text;html=1;strokeColor=none;fillColor=none;align=center;verticalAlign=middle;whiteSpace=wrap;rounded=0;" vertex="1" parent="1">
          <mxGeometry x="373" y="350" width="87" height="30" as="geometry"/>
        </mxCell>
        <mxCell id="btiSJx4ggXDAXspwwILB-24" style="edgeStyle=orthogonalEdgeStyle;rounded=0;orthogonalLoop=1;jettySize=auto;html=1;exitX=0.25;exitY=1;exitDx=0;exitDy=0;entryX=0.25;entryY=0;entryDx=0;entryDy=0;" edge="1" parent="1" source="btiSJx4ggXDAXspwwILB-4" target="btiSJx4ggXDAXspwwILB-15">
          <mxGeometry relative="1" as="geometry"/>
        </mxCell>
        <mxCell id="btiSJx4ggXDAXspwwILB-25" style="edgeStyle=orthogonalEdgeStyle;rounded=0;orthogonalLoop=1;jettySize=auto;html=1;exitX=0.5;exitY=1;exitDx=0;exitDy=0;entryX=0.5;entryY=0;entryDx=0;entryDy=0;" edge="1" parent="1" source="btiSJx4ggXDAXspwwILB-4" target="btiSJx4ggXDAXspwwILB-15">
          <mxGeometry relative="1" as="geometry"/>
        </mxCell>
        <mxCell id="btiSJx4ggXDAXspwwILB-26" style="edgeStyle=orthogonalEdgeStyle;rounded=0;orthogonalLoop=1;jettySize=auto;html=1;exitX=0.75;exitY=1;exitDx=0;exitDy=0;entryX=0.75;entryY=0;entryDx=0;entryDy=0;" edge="1" parent="1" source="btiSJx4ggXDAXspwwILB-4" target="btiSJx4ggXDAXspwwILB-15">
          <mxGeometry relative="1" as="geometry"/>
        </mxCell>
        <mxCell id="btiSJx4ggXDAXspwwILB-4" value="volatile int value = 0" style="rounded=0;whiteSpace=wrap;html=1;" vertex="1" parent="1">
          <mxGeometry x="349" y="400" width="132" height="40" as="geometry"/>
        </mxCell>
        <mxCell id="btiSJx4ggXDAXspwwILB-15" value="获取值" style="rounded=0;whiteSpace=wrap;html=1;" vertex="1" parent="1">
          <mxGeometry x="353" y="550" width="120" height="60" as="geometry"/>
        </mxCell>
        <mxCell id="btiSJx4ggXDAXspwwILB-16" style="edgeStyle=orthogonalEdgeStyle;rounded=0;orthogonalLoop=1;jettySize=auto;html=1;exitX=0.5;exitY=1;exitDx=0;exitDy=0;entryX=0.151;entryY=-0.006;entryDx=0;entryDy=0;entryPerimeter=0;" edge="1" parent="1" source="btiSJx4ggXDAXspwwILB-17" target="btiSJx4ggXDAXspwwILB-2">
          <mxGeometry relative="1" as="geometry"/>
        </mxCell>
        <mxCell id="btiSJx4ggXDAXspwwILB-17" value="线程1" style="rounded=1;whiteSpace=wrap;html=1;" vertex="1" parent="1">
          <mxGeometry x="180" y="190" width="120" height="60" as="geometry"/>
        </mxCell>
        <mxCell id="btiSJx4ggXDAXspwwILB-18" style="edgeStyle=orthogonalEdgeStyle;rounded=0;orthogonalLoop=1;jettySize=auto;html=1;exitX=0.5;exitY=1;exitDx=0;exitDy=0;entryX=0.457;entryY=0;entryDx=0;entryDy=0;entryPerimeter=0;" edge="1" parent="1" source="btiSJx4ggXDAXspwwILB-19" target="btiSJx4ggXDAXspwwILB-2">
          <mxGeometry relative="1" as="geometry"/>
        </mxCell>
        <mxCell id="btiSJx4ggXDAXspwwILB-19" value="线程1" style="rounded=1;whiteSpace=wrap;html=1;" vertex="1" parent="1">
          <mxGeometry x="340" y="190" width="120" height="60" as="geometry"/>
        </mxCell>
        <mxCell id="btiSJx4ggXDAXspwwILB-20" style="edgeStyle=orthogonalEdgeStyle;rounded=0;orthogonalLoop=1;jettySize=auto;html=1;exitX=0.5;exitY=1;exitDx=0;exitDy=0;entryX=0.774;entryY=0;entryDx=0;entryDy=0;entryPerimeter=0;" edge="1" parent="1" source="btiSJx4ggXDAXspwwILB-21" target="btiSJx4ggXDAXspwwILB-2">
          <mxGeometry relative="1" as="geometry"/>
        </mxCell>
        <mxCell id="btiSJx4ggXDAXspwwILB-21" value="线程1" style="rounded=1;whiteSpace=wrap;html=1;" vertex="1" parent="1">
          <mxGeometry x="510" y="190" width="120" height="60" as="geometry"/>
        </mxCell>
      </root>
    </mxGraphModel>
  </diagram>
</mxfile>
